# xmcd CD database file
#
# Track frame offsets:
#	150
#	14665
#	28592
#	44102
#	60117
#	73122
#	85630
#	97505
#	112615
#	127202
#	141602
#	155237
#	168672
#	181872
#	196477
#	211085
#	224232
#	238477
#	251395
#	266390
#	279732
#
# Disc length: 3908 seconds
#
# Revision: 5
# Processed by: cddbd v1.5.2PL0 Copyright (c) Steve Scherf et al.
# Submitted via: CDex 1.99.1
#
DISCID=3e0f4215
DTITLE=Bessie Smith - Bessie Smith Empress of the Blues_  The Complete Recordings [Volume 3 Disc 1]
DYEAR=1992
DGENRE=Blues
TTITLE0=Red Mountain Blues
TTITLE1=Golden Rule Blues
TTITLE2=Lonesome Desert Blues
TTITLE3=Them "Has Been" Blues
TTITLE4=Squeeze Me
TTITLE5=What's the Matter Now?
TTITLE6=I Want Every Bit of It
TTITLE7=Jazzbo Brown from Memphis Town
TTITLE8=The Gin House Blues
TTITLE9=Money Blues
TTITLE10=Baby Doll
TTITLE11=Hard Driving Papa
TTITLE12=Lost Your Head Blues
TTITLE13=Hard Time Blues
TTITLE14=Honey Man Blues
TTITLE15=One and Two Blues
TTITLE16=Young Woman's Blues
TTITLE17=Preachin' the Blues
TTITLE18=Back Water Blues
TTITLE19=After You've Gone
TTITLE20=Alexander's Ragtime Band
EXTD=YEAR: 1992
EXTT0=
EXTT1=
EXTT2=
EXTT3=
EXTT4=
EXTT5=
EXTT6=
EXTT7=
EXTT8=
EXTT9=
EXTT10=
EXTT11=
EXTT12=
EXTT13=
EXTT14=
EXTT15=
EXTT16=
EXTT17=
EXTT18=
EXTT19=
EXTT20=
PLAYORDER=
